<?xml version="1.0" encoding="UTF-8" standalone="no"?>
<svg
   fill="none"
   width="3840"
   height="2160"
   viewBox="0 0 3840 2160"
   version="1.1"
   id="svg23"
   xmlns="http://www.w3.org/2000/svg"
   xmlns:svg="http://www.w3.org/2000/svg">
  <defs
     id="defs27" />
  <rect
     width="3840"
     height="2160"
     fill="#101010"
     id="rect2" />
  <g
     transform="matrix(1.42,0,0,1.42,1388,900)"
     id="g19">
    <path
       id="rect4"
       style="fill:#101010"
       d="M 0,0 H 245.377 V 254.769 H 0 Z" />
    <g
       clip-path="url(#a)"
       id="g12">
      <path
         id="rect6"
         style="fill:#ff6a2b"
         d="M 34.634499,39.330799 H 210.7425 V 215.4388 H 34.634499 Z" />
      <path
         d="m 207.22,39.3307 c 0,87.7203 -19.664,130.2003 -50.061,151.1963 -15.302,10.57 -33.665,15.955 -54.432,18.667 -20.7988,2.717 -43.7216,2.722 -68.093,2.722 -95.3165,0 -172.586,-77.269 -172.586,-172.5853 0,-95.3165 77.2695,-172.5857 172.586,-172.5857 95.316,0 172.586,77.2692 172.586,172.5857 z"
         fill="#101010"
         stroke="#ff6a2b"
         stroke-width="7.04432"
         id="path8" />
      <path
         id="rect10"
         style="stroke:#ff6a2b;stroke-width:5.87027"
         d="M 37.569199,42.2659 H 207.80721 V 212.50391 H 37.569199 Z" />
    </g>
    <defs
       id="defs17">
      <clipPath
         id="a">
        <rect
           x="34.634499"
           y="39.330799"
           width="176.108"
           height="176.108"
           fill="#ff6a2b"
           id="rect14" />
      </clipPath>
    </defs>
  </g>
  <g
     aria-label="e/acc"
     id="text21"
     style="font-weight:bold;font-size:280px;font-family:'Liberation Sans';letter-spacing:-6;fill:#ff6a2b">
    <path
       d="m 1906.72,1101.72 c 0.28,-3.36 0.28,-4.76 0.28,-6.72 0,-15.12 -2.24,-29.12 -5.88,-39.76 -10.08,-27.44 -34.44,-43.96 -64.96,-43.96 -43.4,0 -70,31.36 -70,82.04 0,48.44 26.32,78.12 69.16,78.12 33.88,0 61.32,-19.04 70,-49 h -38.64 c -4.76,12.04 -15.68,19.04 -29.96,19.04 -11.2,0 -20.16,-4.76 -25.76,-13.16 -3.64,-5.6 -5.04,-12.32 -5.6,-26.6 z m -100.8,-26.04 c 2.52,-23.24 12.32,-34.44 29.68,-34.44 17.92,0 28.56,12.04 30.52,34.44 z"
       id="path32" />
    <path
       d="m 1967.9199,965.08 -57.68,203.84 h 18.76 l 57.68,-203.84 z"
       id="path34" />
    <path
       d="m 2128.2399,1160.24 c -6.72,-6.44 -8.96,-10.92 -8.96,-18.48 v -84 c 0,-30.8 -21,-46.48 -61.88,-46.48 -40.88,0 -62.16,17.36 -64.68,52.36 h 37.8 c 1.96,-15.68 8.4,-20.72 27.72,-20.72 15.12,0 22.68,5.04 22.68,15.12 0,5.04 -2.52,9.24 -6.72,11.76 -5.32,2.8 -5.32,2.8 -24.64,5.88 l -15.68,2.8 c -29.96,5.04 -44.52,20.44 -44.52,47.6 0,27.16 18.2,45.36 45.92,45.36 16.8,0 31.92,-7 45.92,-21.56 0,7.84 0.84,10.64 4.48,15.12 h 42.56 z m -47.32,-56 c 0,22.68 -11.2,35.56 -31.08,35.56 -13.16,0 -21.28,-7 -21.28,-18.2 0,-11.76 6.16,-17.36 22.4,-20.72 l 13.44,-2.52 c 10.36,-1.96 12.04,-2.52 16.52,-4.76 z"
       id="path36" />
    <path
       d="m 2277.3598,1070.36 c -2.8,-36.96 -27.16,-59.08 -65.24,-59.08 -45.36,0 -71.4,29.68 -71.4,81.2 0,49.84 26.04,78.96 70.84,78.96 36.68,0 62.16,-22.68 65.8,-58.8 h -37.52 c -4.76,19.6 -12.6,27.16 -28.28,27.16 -19.88,0 -31.64,-17.64 -31.64,-47.32 0,-14.56 2.8,-27.72 7.56,-36.68 4.48,-8.4 13.16,-12.88 24.36,-12.88 15.96,0 23.52,7.56 28,27.44 z"
       id="path38" />
    <path
       d="m 2427.3196,1070.36 c -2.8,-36.96 -27.16,-59.08 -65.24,-59.08 -45.36,0 -71.4,29.68 -71.4,81.2 0,49.84 26.04,78.96 70.84,78.96 36.68,0 62.16,-22.68 65.8,-58.8 h -37.52 c -4.76,19.6 -12.6,27.16 -28.28,27.16 -19.88,0 -31.64,-17.64 -31.64,-47.32 0,-14.56 2.8,-27.72 7.56,-36.68 4.48,-8.4 13.16,-12.88 24.36,-12.88 15.96,0 23.52,7.56 28,27.44 z"
       id="path40" />
  </g>
</svg>
